IKResults
version=1
nRows=13
nColumns=40
inDegrees=yes

Units are S.I. units (second, meters, Newtons, ...)
Angles are in degrees.

endheader
time	pelvis_tilt	pelvis_list	pelvis_rotation	pelvis_tx	pelvis_ty	pelvis_tz	hip_flexion_r	hip_adduction_r	hip_rotation_r	knee_angle_r	knee_angle_r_beta	ankle_angle_r	subtalar_angle_r	mtp_angle_r	hip_flexion_l	hip_adduction_l	hip_rotation_l	knee_angle_l	knee_angle_l_beta	ankle_angle_l	subtalar_angle_l	mtp_angle_l	lumbar_extension	lumbar_bending	lumbar_rotation	arm_flex_r	arm_add_r	arm_rot_r	elbow_flex_r	pro_sup_r	wrist_flex_r	wrist_dev_r	arm_flex_l	arm_add_l	arm_rot_l	elbow_flex_l	pro_sup_l	wrist_flex_l	wrist_dev_l
      0.74000000	     -2.02328621	      3.01652878	     -4.62174751	      0.03373482	      0.91676389	      1.43778308	     -1.30308156	     -5.35497987	     -2.47570757	    -39.75918159	     -0.69392863	     -3.34907047	    -15.91029746	      3.85172677	     13.50339139	     -2.06711099	     21.59685771	     -9.10993496	     -0.15899836	      2.98439863	      1.63836513	     -3.93118848	      0.50616649	     -5.81092230	      3.60760167	     -5.24669785	     -8.85566784	      3.39526453	     25.89749168	     89.95437384	      0.00000000	      0.00000000	     -6.55459031	      8.60556425	      5.59566951	     16.15053021	     89.95437384	      0.00000000	      0.00000000
      0.75000000	     -1.95118291	      2.95121579	     -4.70454006	      0.04068669	      0.91775634	      1.43613312	     -0.49659666	     -5.47002824	     -2.25603837	    -41.57500256	     -0.72562068	     -4.85082630	    -16.03590931	      4.02245677	     12.67800570	     -2.21298329	     21.94866717	     -8.63050066	     -0.15063065	      3.17150054	      1.11580037	     -4.15388582	      0.41768980	     -5.72637609	      3.58323698	     -5.37084238	     -9.00625473	      3.64987000	     25.72444516	     89.95437384	      0.00000000	      0.00000000	     -6.24651498	      8.68332312	      5.47514042	     16.35663528	     89.95437384	      0.00000000	      0.00000000
      0.76000000	     -1.76432605	      2.68590996	     -4.52669874	      0.04727739	      0.91873944	      1.43465281	      0.08990733	     -5.32356030	     -2.33775743	    -43.25259119	     -0.75490013	     -5.34581142	    -16.05926793	      4.01188798	     11.93040724	     -2.08667027	     22.08578036	     -8.53768464	     -0.14901071	      3.32430451	      0.85263999	     -4.23139341	      0.09674344	     -5.49459969	      3.23141927	     -5.40376261	     -9.04309643	      3.71340610	     25.60812753	     89.95437384	      0.00000000	      0.00000000	     -5.90254536	      8.84237188	      5.38375457	     16.61910470	     89.95437384	      0.00000000	      0.00000000
      0.77000000	     -1.63271867	      2.68291678	     -4.55225162	      0.05381540	      0.91940220	      1.43325057	      0.89491895	     -5.51716045	     -2.28448448	    -45.05114534	     -0.78629082	     -6.00485171	    -16.47431678	      4.14375298	     11.13700251	     -2.28241043	     22.15653019	     -8.15810393	     -0.14238577	      3.62171151	      0.22114427	     -4.46964493	     -0.08402747	     -5.52129382	      3.14461758	     -5.41318468	     -9.06976393	      3.83030643	     25.37361965	     89.95437384	      0.00000000	      0.00000000	     -5.51035132	      9.00684954	      5.26332989	     16.88231180	     89.95437384	      0.00000000	      0.00000000
      0.78000000	     -1.48528515	      2.70288735	     -4.50395917	      0.06031214	      0.91994962	      1.43178835	      1.63585598	     -5.69848499	     -2.25153081	    -46.70913192	     -0.81522814	     -6.23891736	    -16.75913313	      4.20984680	     10.40770944	     -2.46920809	     22.25418856	     -7.93930741	     -0.13856705	      3.80800334	     -0.22949376	     -4.64693938	     -0.28114235	     -5.57823758	      2.96225094	     -5.43384273	     -9.08288533	      3.93437539	     25.19131486	     89.95437384	      0.00000000	      0.00000000	     -5.16036546	      9.19803621	      5.04551296	     17.16041466	     89.95437384	      0.00000000	      0.00000000
      0.79000000	     -1.31776644	      2.60371851	     -4.26126349	      0.06676855	      0.92042710	      1.43010518	      2.22382891	     -5.74026108	     -2.36745936	    -48.00569575	     -0.83785745	     -5.99703486	    -17.07157819	      4.23744513	      9.75680462	     -2.52176816	     22.47374817	     -7.88567319	     -0.13763096	      4.02656460	     -0.35743888	     -4.68634770	     -0.55318603	     -5.48853897	      2.47559154	     -5.44576684	     -9.11802090	      3.90584577	     25.17349201	     89.95437384	      0.00000000	      0.00000000	     -4.77775184	      9.35377334	      4.96383813	     17.39196219	     89.95437384	      0.00000000	      0.00000000
      0.80000000	     -1.31558600	      3.12453044	     -4.38445033	      0.07281589	      0.92035768	      1.42856462	      3.37166642	     -6.53721191	     -2.27712312	    -49.71690669	     -0.86772372	     -4.91302020	    -17.59817347	      5.34342183	      9.16964478	     -3.29210948	     22.80707356	     -7.43975455	     -0.12984821	      3.99351916	     -0.90543798	     -5.15897805	     -0.56712927	     -6.06162457	      2.55989477	     -5.53019371	     -9.07710590	      3.73985897	     25.07001648	     89.95437384	      0.00000000	      0.00000000	     -4.45730362	      9.64945428	      4.36079784	     17.93296821	     89.95437384	      0.00000000	      0.00000000
      0.81000000	     -1.03760249	      3.10548643	     -4.17181990	      0.07916438	      0.92082799	      1.42709119	      3.81962577	     -6.64631620	     -2.40880114	    -50.74125306	     -0.88560193	     -3.51305567	    -17.93352215	      5.56310512	      8.45660892	     -3.43142683	     22.73009381	     -7.50437554	     -0.13097606	      4.48819810	     -1.09986128	     -5.29065558	     -0.92386814	     -6.08579617	      2.21292072	     -5.49795978	     -9.05085312	      3.65257882	     24.88151320	     89.95437384	      0.00000000	      0.00000000	     -3.99997339	      9.84305938	      4.14209081	     18.16849467	     89.95437384	      0.00000000	      0.00000000
      0.82000000	     -0.88429985	      2.97447908	     -3.91386479	      0.08513858	      0.92118376	      1.42579987	      4.40569578	     -6.59292866	     -2.58648968	    -51.55044206	     -0.89972494	     -2.68793500	    -18.09066526	      5.56354609	      7.86759689	     -3.41883489	     22.92285917	     -7.46358477	     -0.13026413	      4.68613757	     -1.16747827	     -5.29572732	     -1.20293125	     -5.99511802	      1.72772501	     -5.46855346	     -8.99647483	      3.58331861	     24.82905430	     89.95437384	      0.00000000	      0.00000000	     -3.50786046	     10.03171732	      4.03889306	     18.33079399	     89.95437384	      0.00000000	      0.00000000
      0.83000000	     -0.69379670	      3.09834582	     -3.79199733	      0.09095948	      0.92149080	      1.42453564	      4.99987255	     -6.77827882	     -2.51131247	    -52.26727943	     -0.91223612	     -0.79926694	    -18.15921662	      5.74552613	      7.20384285	     -3.72978458	     22.72127227	     -7.34035218	     -0.12811331	      4.93893445	     -1.59393976	     -5.44120642	     -1.49484267	     -6.18753895	      1.51153439	     -5.44107790	     -8.90360400	      3.27062673	     24.66706683	     89.95437384	      0.00000000	      0.00000000	     -2.99791057	     10.24895464	      3.79144975	     18.63997218	     89.95437384	      0.00000000	      0.00000000
      0.84000000	     -0.37542100	      3.21437625	     -3.84426346	      0.09717109	      0.92205250	      1.42346297	      5.44596458	     -6.96493226	     -2.32493818	    -52.78303699	     -0.92123778	      0.56343106	    -17.86783829	      7.85201776	      6.21302776	     -4.08326722	     22.88319418	     -6.86658751	     -0.11984456	      4.73343466	     -1.79664856	     -5.78031703	     -1.84915923	     -6.33287763	      1.55731157	     -5.51957319	     -8.71907172	      2.33921383	     24.53644984	     89.95437384	      0.00000000	      0.00000000	     -2.48449518	     10.54697385	      2.60686059	     18.93447268	     89.95437384	      0.00000000	      0.00000000
      0.85000000	     -0.32478784	      3.11259643	     -3.57736357	      0.10257957	      0.92233328	      1.42227592	      6.15593520	     -6.81643254	     -2.28550591	    -53.08992372	     -0.92659397	      1.32208815	    -17.92117600	      7.89584845	      5.81980154	     -4.08920447	     22.72887246	     -6.93289723	     -0.12100188	      4.95203760	     -2.01272586	     -5.82726097	     -2.04713360	     -6.26309518	      1.14776751	     -5.40007520	     -8.65651004	      2.38419195	     24.25753501	     89.95437384	      0.00000000	      0.00000000	     -1.89741388	     10.70515030	      2.43515180	     19.09720332	     89.95437384	      0.00000000	      0.00000000
      0.86000000	     -0.33975207	      3.05234673	     -3.29663586	      0.10811755	      0.92256205	      1.42112445	      6.89983500	     -6.68860670	     -2.23436578	    -53.16665513	     -0.92793318	      1.46696989	    -17.55719132	      7.76959463	      5.60126016	     -4.09431852	     22.69942603	     -7.21169777	     -0.12586787	      4.96530244	     -1.97284096	     -5.74223972	     -2.14303389	     -6.23822519	      0.79380138	     -5.50074753	     -8.64229568	      2.38050986	     24.34077060	     89.95437384	      0.00000000	      0.00000000	     -1.40234252	     10.86512689	      2.37529626	     19.50355716	     89.95437384	      0.00000000	      0.00000000
